# xmcd
#
# Track frame offsets: 
#        150
#        20311
#        48342
#        82086
#        111001
#        143107
#        192859
#        213089
#        242461
#        258292
#        320346
#
# Disc length: 4676 seconds
#
# Revision: 0
# Processed by: cddbd v1.5.2PL0 Copyright (c) Steve Scherf et al.
# Submitted via: ExactAudioCopyFreeDBPlugin 1.0
#
DISCID=8a12420b
DTITLE=Ken Hensley and Live Fire - 2008 - DVD - Blood On The Highway Cd 
DTITLE=2
DYEAR=2008
DGENRE=
TTITLE0=Out Of My Control (4:28)
TTITLE1=Brown Eyed Boy (6:13)
TTITLE2=Circle Of Hands (7:29)
TTITLE3=The Wizard (6:25)
TTITLE4=Free Me (feat. John Lawton) (7:08)
TTITLE5=July Morning (feat.John Lawton) (11:03)
TTITLE6=Rain (feat. JohnLawton and Eve Gallagher) (4:29)
TTITLE7=Stealin' (6:31)
TTITLE8=Easy Living (3:31)
TTITLE9=Lady In Black (13:47)
TTITLE10=Gypsy (6:45)
EXTD=
EXTT0=
EXTT1=
EXTT2=
EXTT3=
EXTT4=
EXTT5=
EXTT6=
EXTT7=
EXTT8=
EXTT9=
EXTT10=
PLAYORDER=
